# xmcd
#
# Track frame offsets: 
#        150
#        13595
#        22302
#        32817
#        39357
#        49635
#        59012
#        75547
#        81525
#        92262
#        99855
#        109995
#        122925
#        130945
#        140347
#        147082
#        151680
#        160037
#
# Disc length: 2281 seconds
#
# Revision: 0
# Processed by: cddbd v1.5.2PL0 Copyright (c) Steve Scherf et al.
# Submitted via: ExactAudioCopyFreeDBPlugin 1.0
#
DISCID=e508e712
DTITLE=The Dillards - Classic Dillards: The Lansdowne and Winston Music 
DTITLE=Publishers Collection Vol. I and II
DYEAR=1999
DGENRE=Bluegrass
TTITLE0=G String Boogie
TTITLE1=Banjo In The Hollow
TTITLE2=Liberty
TTITLE3=Old Joseph
TTITLE4=Doug's Tune (aka My Grass Is Blue)
TTITLE5=Hickory Hollow (aka Hickory Holler)
TTITLE6=Monday Motion
TTITLE7=Cold Trailin'
TTITLE8=Sinkin' Creek
TTITLE9=Blackeyed Susie
TTITLE10=Jody's Tune
TTITLE11=Old Joe Clark
TTITLE12=Jamboree
TTITLE13=Cripple Creek
TTITLE14=Fiddle And Banjo
TTITLE15=It Only Takes A Minute
TTITLE16=Lonesome Indian
TTITLE17=Wide Wide Dixie Highway
EXTD=
EXTT0=
EXTT1=
EXTT2=
EXTT3=
EXTT4=
EXTT5=
EXTT6=
EXTT7=
EXTT8=
EXTT9=
EXTT10=
EXTT11=
EXTT12=
EXTT13=
EXTT14=
EXTT15=
EXTT16=
EXTT17=
PLAYORDER=
